FrauncesItalic-LightOpMaxGoofyMin.ufo
<glyph name="plus" format="2">
  <advance width="910"/>
  <unicode hex="002B"/>
  <outline>
    <contour>
      <point x="452.0" y="344.0" type="curve" smooth="yes"/>
      <point x="455.0" y="344.0"/>
      <point x="457" y="346.0"/>
      <point x="458" y="350.0" type="curve" smooth="yes"/>
      <point x="619" y="1047.0" type="line" smooth="yes"/>
      <point x="620" y="1051.0"/>
      <point x="619" y="1054.0"/>
      <point x="616" y="1054.0" type="curve" smooth="yes"/>
      <point x="613" y="1055.0"/>
      <point x="611" y="1053.0"/>
      <point x="610" y="1050.0" type="curve" smooth="yes"/>
      <point x="449" y="353.0" type="line" smooth="yes"/>
      <point x="448" y="349.0"/>
      <point x="449" y="345.0"/>
    </contour>
    <component base="minus"/>
  </outline>
</glyph>
<glyph name="two" format="2">
  <advance width="954"/>
  <unicode hex="0032"/>
  <outline>
    <contour>
      <point x="119" y="199" type="line"/>
      <point x="398" y="391" type="line" smooth="yes"/>
      <point x="832" y="691"/>
      <point x="985" y="858"/>
      <point x="1032" y="1036" type="curve" smooth="yes"/>
      <point x="1092.1733103881659" y="1262.4148289181835"/>
      <point x="988.0" y="1420.0"/>
      <point x="765" y="1420" type="curve" smooth="yes"/>
      <point x="546.0" y="1420.0"/>
      <point x="349.00739033424594" y="1257.7718568328744"/>
      <point x="305" y="1093" type="curve" smooth="yes"/>
      <point x="293" y="1049"/>
      <point x="301" y="1029"/>
      <point x="323" y="1029" type="curve" smooth="yes"/>
      <point x="351" y="1029"/>
      <point x="371" y="1050"/>
      <point x="383" y="1095" type="curve" smooth="yes"/>
      <point x="399" y="1152" type="line" smooth="yes"/>
      <point x="437.29031665306974" y="1288.4092530765608"/>
      <point x="564.0" y="1408.0"/>
      <point x="759" y="1408" type="curve" smooth="yes"/>
      <point x="922.0" y="1408.0"/>
      <point x="1037.3274618501118" y="1287.967276600418"/>
      <point x="974" y="1051" type="curve" smooth="yes"/>
      <point x="917" y="838"/>
      <point x="775" y="661"/>
      <point x="394" y="399" type="curve" smooth="yes"/>
      <point x="113" y="206" type="line"/>
    </contour>
    <contour>
      <point x="3" y="56" type="curve" smooth="yes"/>
      <point x="-9.25738037665581" y="10.034823587540714"/>
      <point x="0.0" y="-8"/>
      <point x="21" y="-8" type="curve" smooth="yes"/>
      <point x="39" y="-8"/>
      <point x="58.046595684633495" y="8.181723170070626"/>
      <point x="68" y="47" type="curve" smooth="yes"/>
      <point x="104.0" y="184.0"/>
      <point x="153.0" y="232.0"/>
      <point x="212" y="232.0" type="curve" smooth="yes"/>
      <point x="256" y="232"/>
      <point x="300" y="199"/>
      <point x="371" y="123" type="curve" smooth="yes"/>
      <point x="460" y="27"/>
      <point x="520" y="-13"/>
      <point x="598" y="-13" type="curve" smooth="yes"/>
      <point x="693" y="-13"/>
      <point x="769" y="34"/>
      <point x="858" y="191" type="curve" smooth="yes"/>
      <point x="860" y="193"/>
      <point x="860" y="195"/>
      <point x="858" y="196" type="curve" smooth="yes"/>
      <point x="856" y="197"/>
      <point x="855" y="197"/>
      <point x="851" y="192" type="curve" smooth="yes"/>
      <point x="785" y="75"/>
      <point x="730" y="43"/>
      <point x="646" y="43" type="curve" smooth="yes"/>
      <point x="497" y="43"/>
      <point x="361" y="242"/>
      <point x="223" y="242" type="curve" smooth="yes"/>
      <point x="122" y="242.0"/>
      <point x="29" y="155"/>
    </contour>
  </outline>
</glyph>
<glyph name="three" format="2">
  <advance width="846"/>
  <unicode hex="0033"/>
  <outline>
    <contour>
      <point x="397" y="759" type="line"/>
      <point x="1031" y="1363" type="line" smooth="yes"/>
      <point x="1045" y="1376"/>
      <point x="1052" y="1384"/>
      <point x="1053" y="1389" type="curve" smooth="yes"/>
      <point x="1055" y="1397"/>
      <point x="1050" y="1400"/>
      <point x="1044" y="1400" type="curve" smooth="yes"/>
      <point x="376" y="1400" type="line" smooth="yes"/>
      <point x="364" y="1400"/>
      <point x="359" y="1393"/>
      <point x="355" y="1385" type="curve" smooth="yes"/>
      <point x="263" y="1199" type="line" smooth="yes"/>
      <point x="261" y="1193"/>
      <point x="262" y="1189"/>
      <point x="265" y="1189" type="curve" smooth="yes"/>
      <point x="268" y="1189"/>
      <point x="272" y="1191"/>
      <point x="275" y="1196" type="curve" smooth="yes"/>
      <point x="359" y="1329" type="line" smooth="yes"/>
      <point x="371" y="1348"/>
      <point x="383" y="1353"/>
      <point x="395" y="1353" type="curve" smooth="yes"/>
      <point x="1011" y="1353" type="line"/>
      <point x="1010" y="1359" type="line"/>
      <point x="398" y="776" type="line" smooth="yes"/>
      <point x="389" y="767"/>
      <point x="386" y="765"/>
      <point x="385" y="762" type="curve" smooth="yes"/>
      <point x="384" y="757"/>
      <point x="385" y="754"/>
      <point x="394" y="754" type="curve" smooth="yes"/>
      <point x="458" y="754" type="line" smooth="yes"/>
      <point x="682" y="754"/>
      <point x="796" y="624"/>
      <point x="723" y="349" type="curve" smooth="yes"/>
      <point x="664" y="132"/>
      <point x="495" y="-9"/>
      <point x="297" y="-10" type="curve" smooth="yes"/>
      <point x="104" y="-11"/>
      <point x="38" y="73"/>
      <point x="73" y="204" type="curve" smooth="yes"/>
      <point x="94" y="285" type="line" smooth="yes"/>
      <point x="102" y="314"/>
      <point x="93" y="333"/>
      <point x="76" y="333" type="curve" smooth="yes"/>
      <point x="52" y="333"/>
      <point x="27" y="306"/>
      <point x="12" y="251" type="curve" smooth="yes"/>
      <point x="-30" y="93"/>
      <point x="64" y="-20"/>
      <point x="287" y="-20" type="curve" smooth="yes"/>
      <point x="522" y="-20"/>
      <point x="725" y="135"/>
      <point x="789" y="375" type="curve" smooth="yes"/>
      <point x="863" y="650"/>
      <point x="728" y="766"/>
      <point x="463" y="766" type="curve" smooth="yes"/>
      <point x="449" y="766"/>
      <point x="416" y="766"/>
      <point x="397" y="766" type="curve"/>
    </contour>
  </outline>
</glyph>
<glyph name="six" format="2">
  <advance width="1036"/>
  <unicode hex="0036"/>
  <outline>
    <contour>
      <point x="870" y="1420" type="curve" smooth="yes"/>
      <point x="597" y="1420"/>
      <point x="319" y="1167"/>
      <point x="179" y="645" type="curve" smooth="yes"/>
      <point x="61" y="206"/>
      <point x="193" y="-20"/>
      <point x="454" y="-20" type="curve" smooth="yes"/>
      <point x="692" y="-20"/>
      <point x="906" y="176"/>
      <point x="976" y="437" type="curve" smooth="yes"/>
      <point x="1050" y="711"/>
      <point x="907" y="856"/>
      <point x="690" y="856" type="curve" smooth="yes"/>
      <point x="489" y="856"/>
      <point x="265" y="705"/>
      <point x="194" y="439" type="curve"/>
      <point x="203" y="439" type="line"/>
      <point x="270" y="689"/>
      <point x="494" y="842"/>
      <point x="676" y="842" type="curve" smooth="yes"/>
      <point x="885" y="842"/>
      <point x="982" y="694"/>
      <point x="908" y="418" type="curve" smooth="yes"/>
      <point x="830" y="126"/>
      <point x="655" y="-10"/>
      <point x="456" y="-10" type="curve" smooth="yes"/>
      <point x="234" y="-10"/>
      <point x="118" y="168"/>
      <point x="247" y="651" type="curve" smooth="yes"/>
      <point x="392" y="1189"/>
      <point x="630" y="1410"/>
      <point x="868" y="1410" type="curve" smooth="yes"/>
      <point x="1030" y="1410"/>
      <point x="1093" y="1334"/>
      <point x="1062" y="1216" type="curve" smooth="yes"/>
      <point x="1045" y="1153" type="line" smooth="yes"/>
      <point x="1033" y="1109"/>
      <point x="1044" y="1091"/>
      <point x="1070" y="1091" type="curve" smooth="yes"/>
      <point x="1103" y="1091"/>
      <point x="1124" y="1118"/>
      <point x="1137" y="1167" type="curve" smooth="yes"/>
      <point x="1173" y="1302"/>
      <point x="1075" y="1420"/>
    </contour>
  </outline>
</glyph>
<glyph name="less" format="2">
  <advance width="863"/>
  <unicode hex="003C"/>
  <outline>
    <contour>
      <point x="136" y="685" type="line"/>
      <point x="742" y="272" type="line" smooth="yes"/>
      <point x="744" y="271"/>
      <point x="745" y="268"/>
      <point x="744" y="266" type="curve" smooth="yes"/>
      <point x="744" y="264"/>
      <point x="743" y="263"/>
      <point x="741" y="263" type="curve" smooth="yes"/>
      <point x="739" y="263"/>
      <point x="737" y="264"/>
      <point x="735" y="265" type="curve" smooth="yes"/>
      <point x="133" y="675" type="line" smooth="yes"/>
      <point x="129" y="678"/>
      <point x="127" y="680"/>
      <point x="128" y="684" type="curve" smooth="yes"/>
      <point x="129" y="688"/>
      <point x="131" y="690"/>
      <point x="137" y="693" type="curve" smooth="yes"/>
      <point x="915" y="1099" type="line" smooth="yes"/>
      <point x="918" y="1101"/>
      <point x="920" y="1101"/>
      <point x="921" y="1101" type="curve" smooth="yes"/>
      <point x="924" y="1101"/>
      <point x="925" y="1100"/>
      <point x="924" y="1098" type="curve" smooth="yes"/>
      <point x="924" y="1096"/>
      <point x="922" y="1095"/>
      <point x="918" y="1093" type="curve" smooth="yes"/>
      <point x="136" y="684" type="line"/>
    </contour>
  </outline>
</glyph>
<glyph name="section" format="2">
  <advance width="898"/>
  <unicode hex="00A7"/>
  <outline>
    <contour>
      <point x="544" y="200" type="line"/>
      <point x="686" y="226"/>
      <point x="791" y="335"/>
      <point x="826" y="468" type="curve" smooth="yes"/>
      <point x="862" y="600"/>
      <point x="817" y="712"/>
      <point x="590" y="811" type="curve" smooth="yes"/>
      <point x="371" y="907"/>
      <point x="327" y="1016"/>
      <point x="361" y="1143" type="curve" smooth="yes"/>
      <point x="407" y="1314"/>
      <point x="548" y="1408"/>
      <point x="706" y="1408" type="curve" smooth="yes"/>
      <point x="876" y="1408"/>
      <point x="972" y="1322"/>
      <point x="1002" y="1102" type="curve" smooth="yes"/>
      <point x="1003" y="1098"/>
      <point x="1006" y="1098"/>
      <point x="1009" y="1099" type="curve" smooth="yes"/>
      <point x="1013" y="1100"/>
      <point x="1015" y="1104"/>
      <point x="1014" y="1106" type="curve" smooth="yes"/>
      <point x="1011" y="1413" type="line" smooth="yes"/>
      <point x="1011" y="1418"/>
      <point x="1008" y="1418"/>
      <point x="1006" y="1418" type="curve" smooth="yes"/>
      <point x="1004" y="1418"/>
      <point x="960" y="1325"/>
      <point x="953" y="1325" type="curve" smooth="yes"/>
      <point x="932" y="1325"/>
      <point x="887" y="1420"/>
      <point x="709" y="1420" type="curve" smooth="yes"/>
      <point x="542" y="1420"/>
      <point x="368" y="1299"/>
      <point x="319" y="1117" type="curve" smooth="yes"/>
      <point x="279" y="968"/>
      <point x="334" y="863"/>
      <point x="552" y="767" type="curve" smooth="yes"/>
      <point x="772" y="671"/>
      <point x="817" y="563"/>
      <point x="785" y="443" type="curve" smooth="yes"/>
      <point x="751" y="318"/>
      <point x="659" y="235"/>
      <point x="542" y="213" type="curve"/>
    </contour>
    <contour>
      <point x="445" y="860" type="line"/>
      <point x="321" y="819"/>
      <point x="212" y="716"/>
      <point x="175" y="577" type="curve" smooth="yes"/>
      <point x="135" y="428"/>
      <point x="190" y="323"/>
      <point x="407" y="227" type="curve" smooth="yes"/>
      <point x="627" y="131"/>
      <point x="672" y="23"/>
      <point x="640" y="-97" type="curve" smooth="yes"/>
      <point x="601" y="-243"/>
      <point x="481" y="-333"/>
      <point x="337" y="-333" type="curve" smooth="yes"/>
      <point x="173" y="-333"/>
      <point x="51" y="-251"/>
      <point x="31" y="-52" type="curve" smooth="yes"/>
      <point x="31" y="-48"/>
      <point x="29" y="-47"/>
      <point x="24" y="-48" type="curve" smooth="yes"/>
      <point x="21" y="-49"/>
      <point x="19" y="-52"/>
      <point x="19" y="-55" type="curve" smooth="yes"/>
      <point x="22" y="-339" type="line" smooth="yes"/>
      <point x="22" y="-342"/>
      <point x="24" y="-344"/>
      <point x="28" y="-344" type="curve" smooth="yes"/>
      <point x="34" y="-344"/>
      <point x="75" y="-249"/>
      <point x="82" y="-249" type="curve" smooth="yes"/>
      <point x="104" y="-249"/>
      <point x="151" y="-346"/>
      <point x="333" y="-346" type="curve" smooth="yes"/>
      <point x="508" y="-346"/>
      <point x="641" y="-225"/>
      <point x="682" y="-72" type="curve" smooth="yes"/>
      <point x="717" y="60"/>
      <point x="672" y="172"/>
      <point x="446" y="271" type="curve" smooth="yes"/>
      <point x="226" y="367"/>
      <point x="183" y="476"/>
      <point x="217" y="603" type="curve" smooth="yes"/>
      <point x="251" y="733"/>
      <point x="342" y="819"/>
      <point x="453" y="852" type="curve"/>
    </contour>
  </outline>
</glyph>
<glyph name="mu.math" format="2">
  <advance width="902"/>
  <unicode hex="00B5"/>
  <outline>
    <contour>
      <point x="130" y="257" type="line"/>
      <point x="28" y="-123"/>
      <point x="-43" y="-313"/>
      <point x="-62" y="-386" type="curve" smooth="yes"/>
      <point x="-68" y="-406"/>
      <point x="-62" y="-418"/>
      <point x="-49" y="-418" type="curve" smooth="yes"/>
      <point x="-36" y="-418"/>
      <point x="-24" y="-406"/>
      <point x="-18" y="-386" type="curve" smooth="yes"/>
      <point x="1" y="-313"/>
      <point x="37" y="-123"/>
      <point x="139" y="257" type="curve"/>
    </contour>
    <contour>
      <point x="664" y="162" type="line" smooth="yes"/>
      <point x="598" y="114" type="line" smooth="yes"/>
      <point x="512.8283419538592" y="52.056975966443076"/>
      <point x="423.6782945736434" y="14.0"/>
      <point x="341" y="14" type="curve" smooth="yes"/>
      <point x="208" y="14"/>
      <point x="139" y="95"/>
      <point x="186" y="268" type="curve" smooth="yes"/>
      <point x="343" y="855" type="line" smooth="yes"/>
      <point x="344" y="858"/>
      <point x="342" y="860"/>
      <point x="339" y="860" type="curve" smooth="yes"/>
      <point x="337" y="860"/>
      <point x="334" y="860"/>
      <point x="332" y="859" type="curve" smooth="yes"/>
      <point x="296" y="849" type="line" smooth="yes"/>
      <point x="291" y="847"/>
      <point x="287" y="844"/>
      <point x="286" y="839" type="curve" smooth="yes"/>
      <point x="127" y="248" type="line" smooth="yes"/>
      <point x="84" y="86"/>
      <point x="161" y="-12"/>
      <point x="305" y="-12" type="curve" smooth="yes"/>
      <point x="396.3063973063973" y="-12.0"/>
      <point x="489.39012857944596" y="21.653277278679553"/>
      <point x="603" y="106" type="curve" smooth="yes"/>
      <point x="669" y="155" type="line"/>
    </contour>
    <contour>
      <point x="707" y="-20" type="curve" smooth="yes"/>
      <point x="758" y="-20"/>
      <point x="796" y="18"/>
      <point x="809" y="46" type="curve" smooth="yes"/>
      <point x="811" y="50"/>
      <point x="810" y="53"/>
      <point x="807" y="53" type="curve" smooth="yes"/>
      <point x="801" y="53"/>
      <point x="774" y="-5"/>
      <point x="723" y="-5" type="curve" smooth="yes"/>
      <point x="686" y="-5"/>
      <point x="673" y="22"/>
      <point x="689" y="82" type="curve" smooth="yes"/>
      <point x="896" y="855" type="line" smooth="yes"/>
      <point x="897" y="858"/>
      <point x="895" y="860"/>
      <point x="892" y="860" type="curve" smooth="yes"/>
      <point x="890" y="860"/>
      <point x="887" y="860"/>
      <point x="885" y="859" type="curve" smooth="yes"/>
      <point x="849" y="849" type="line" smooth="yes"/>
      <point x="844" y="847"/>
      <point x="840" y="844"/>
      <point x="839" y="839" type="curve" smooth="yes"/>
      <point x="662" y="181" type="line"/>
      <point x="637" y="86" type="line" smooth="yes"/>
      <point x="620" y="21"/>
      <point x="646" y="-20"/>
    </contour>
  </outline>
</glyph>
<glyph name="aogonek" format="2">
  <advance width="798"/>
  <unicode hex="0105"/>
  <outline>
    <contour>
      <point x="611" y="5" type="line"/>
      <point x="454" y="-57"/>
      <point x="360" y="-178"/>
      <point x="360" y="-278" type="curve" smooth="yes"/>
      <point x="360" y="-345"/>
      <point x="407" y="-384"/>
      <point x="492" y="-384" type="curve" smooth="yes"/>
      <point x="562" y="-384"/>
      <point x="620" y="-342"/>
      <point x="646" y="-305" type="curve" smooth="yes"/>
      <point x="649" y="-301"/>
      <point x="650" y="-297"/>
      <point x="648" y="-296" type="curve" smooth="yes"/>
      <point x="645" y="-295"/>
      <point x="642" y="-297"/>
      <point x="639" y="-301" type="curve" smooth="yes"/>
      <point x="611" y="-339"/>
      <point x="557" y="-369"/>
      <point x="509" y="-369" type="curve" smooth="yes"/>
      <point x="447" y="-369"/>
      <point x="416" y="-333"/>
      <point x="416" y="-273" type="curve" smooth="yes"/>
      <point x="416" y="-180"/>
      <point x="492" y="-64"/>
      <point x="615" y="-4" type="curve"/>
    </contour>
    <component base="a"/>
  </outline>
</glyph>
<glyph name="eogonek" format="2">
  <advance width="751"/>
  <unicode hex="0119"/>
  <outline>
    <contour>
      <point x="393" y="29.0" type="line"/>
      <point x="265" y="-35"/>
      <point x="181" y="-136"/>
      <point x="158" y="-222.0" type="curve" smooth="yes"/>
      <point x="131" y="-321"/>
      <point x="178" y="-384.0"/>
      <point x="263" y="-384.0" type="curve" smooth="yes"/>
      <point x="320" y="-384.0"/>
      <point x="364" y="-339"/>
      <point x="389" y="-305.0" type="curve" smooth="yes"/>
      <point x="392" y="-301.0"/>
      <point x="393" y="-297.0"/>
      <point x="391" y="-296.0" type="curve" smooth="yes"/>
      <point x="388" y="-295.0"/>
      <point x="385" y="-297.0"/>
      <point x="382" y="-301.0" type="curve" smooth="yes"/>
      <point x="356" y="-336"/>
      <point x="317" y="-369.0"/>
      <point x="279" y="-369.0" type="curve" smooth="yes"/>
      <point x="231" y="-369.0"/>
      <point x="194" y="-311"/>
      <point x="221" y="-218.0" type="curve" smooth="yes"/>
      <point x="253" y="-107"/>
      <point x="296" y="-38"/>
      <point x="396" y="22.0" type="curve"/>
    </contour>
    <component base="e"/>
  </outline>
</glyph>
<glyph name="iogonek" format="2">
  <advance width="412"/>
  <unicode hex="012F"/>
  <outline>
    <contour>
      <point x="209" y="17" type="line"/>
      <point x="95" y="-47"/>
      <point x="20" y="-141"/>
      <point x="-2" y="-222" type="curve" smooth="yes"/>
      <point x="-29" y="-321"/>
      <point x="18" y="-384"/>
      <point x="103" y="-384" type="curve" smooth="yes"/>
      <point x="160" y="-384"/>
      <point x="204" y="-339"/>
      <point x="229" y="-305" type="curve" smooth="yes"/>
      <point x="232" y="-301"/>
      <point x="233" y="-297"/>
      <point x="231" y="-296" type="curve" smooth="yes"/>
      <point x="228" y="-295"/>
      <point x="225" y="-297"/>
      <point x="222" y="-301" type="curve" smooth="yes"/>
      <point x="196" y="-336"/>
      <point x="157" y="-369"/>
      <point x="119" y="-369" type="curve" smooth="yes"/>
      <point x="71" y="-369"/>
      <point x="34" y="-311"/>
      <point x="61" y="-218" type="curve" smooth="yes"/>
      <point x="91" y="-115"/>
      <point x="130" y="-48"/>
      <point x="214" y="9" type="curve"/>
    </contour>
    <component base="i"/>
  </outline>
</glyph>
<glyph name="Lslash" format="2">
  <advance width="874"/>
  <unicode hex="0141"/>
  <outline>
    <contour>
      <point x="70" y="502" type="curve" smooth="yes"/>
      <point x="72" y="499"/>
      <point x="75" y="499"/>
      <point x="77" y="501" type="curve" smooth="yes"/>
      <point x="687" y="944" type="line" smooth="yes"/>
      <point x="689" y="945"/>
      <point x="691" y="948"/>
      <point x="689" y="951" type="curve" smooth="yes"/>
      <point x="687" y="954"/>
      <point x="684" y="953"/>
      <point x="681" y="951" type="curve" smooth="yes"/>
      <point x="71" y="509" type="line" smooth="yes"/>
      <point x="69" y="508"/>
      <point x="68" y="505"/>
    </contour>
    <component base="L"/>
  </outline>
</glyph>
<glyph name="tbar" format="2">
  <advance width="456"/>
  <unicode hex="0167"/>
  <outline>
    <contour>
      <point x="75" y="500" type="curve" smooth="yes"/>
      <point x="74" y="497"/>
      <point x="76" y="495"/>
      <point x="79" y="495" type="curve" smooth="yes"/>
      <point x="455" y="495" type="line" smooth="yes"/>
      <point x="458.0" y="495.0"/>
      <point x="460" y="497"/>
      <point x="461" y="500" type="curve" smooth="yes"/>
      <point x="462" y="503"/>
      <point x="460.0" y="505.0"/>
      <point x="457" y="505" type="curve" smooth="yes"/>
      <point x="81" y="505" type="line" smooth="yes"/>
      <point x="78" y="505"/>
      <point x="76" y="503"/>
    </contour>
    <component base="t"/>
  </outline>
</glyph>
<glyph name="Uogonek" format="2">
  <advance width="1156"/>
  <unicode hex="0172"/>
  <outline>
    <contour>
      <point x="676.0" y="-5.0" type="line"/>
      <point x="510" y="-62"/>
      <point x="411" y="-137"/>
      <point x="391" y="-212.0" type="curve" smooth="yes"/>
      <point x="363" y="-318"/>
      <point x="415" y="-384.0"/>
      <point x="516" y="-384.0" type="curve" smooth="yes"/>
      <point x="582" y="-384.0"/>
      <point x="637" y="-341"/>
      <point x="663" y="-305.0" type="curve" smooth="yes"/>
      <point x="666" y="-301.0"/>
      <point x="667" y="-297.0"/>
      <point x="664" y="-296.0" type="curve" smooth="yes"/>
      <point x="661" y="-295.0"/>
      <point x="659" y="-297.0"/>
      <point x="656" y="-301.0" type="curve" smooth="yes"/>
      <point x="628" y="-338"/>
      <point x="577" y="-369.0"/>
      <point x="532" y="-369.0" type="curve" smooth="yes"/>
      <point x="466" y="-369.0"/>
      <point x="428" y="-308"/>
      <point x="455" y="-208.0" type="curve" smooth="yes"/>
      <point x="476" y="-129"/>
      <point x="535" y="-69"/>
      <point x="679" y="-14.0" type="curve"/>
    </contour>
    <component base="U"/>
  </outline>
</glyph>
<glyph name="uogonek" format="2">
  <advance width="832"/>
  <unicode hex="0173"/>
  <outline>
    <contour>
      <point x="630" y="11" type="line"/>
      <point x="516" y="-52"/>
      <point x="441" y="-142"/>
      <point x="419" y="-222" type="curve" smooth="yes"/>
      <point x="392" y="-321"/>
      <point x="439" y="-384"/>
      <point x="524" y="-384" type="curve" smooth="yes"/>
      <point x="581" y="-384"/>
      <point x="625" y="-339"/>
      <point x="650" y="-305" type="curve" smooth="yes"/>
      <point x="653" y="-301"/>
      <point x="654" y="-297"/>
      <point x="652" y="-296" type="curve" smooth="yes"/>
      <point x="649" y="-295"/>
      <point x="646" y="-297"/>
      <point x="643" y="-301" type="curve" smooth="yes"/>
      <point x="617" y="-336"/>
      <point x="578" y="-369"/>
      <point x="540" y="-369" type="curve" smooth="yes"/>
      <point x="492" y="-369"/>
      <point x="455" y="-311"/>
      <point x="482" y="-218" type="curve" smooth="yes"/>
      <point x="511" y="-116"/>
      <point x="550" y="-50"/>
      <point x="633" y="6" type="curve"/>
    </contour>
    <component base="u"/>
  </outline>
</glyph>
<glyph name="fhook" format="2">
  <advance width="714"/>
  <unicode hex="0192"/>
  <outline>
    <contour>
      <point x="594" y="1150" type="curve" smooth="yes"/>
      <point x="626" y="1288"/>
      <point x="704" y="1390.0"/>
      <point x="773" y="1390" type="curve" smooth="yes"/>
      <point x="819" y="1390"/>
      <point x="838.0" y="1354.0"/>
      <point x="878" y="1354.0" type="curve" smooth="yes"/>
      <point x="901" y="1354.0"/>
      <point x="915.0" y="1368"/>
      <point x="915.0" y="1387" type="curve" smooth="yes"/>
      <point x="915.0" y="1408"/>
      <point x="895" y="1424"/>
      <point x="854" y="1424" type="curve" smooth="yes"/>
      <point x="721.0" y="1424.0"/>
      <point x="646" y="1346"/>
      <point x="572" y="1157" type="curve" smooth="yes"/>
      <point x="440" y="820" type="line"/>
      <point x="465" y="850" type="line"/>
      <point x="310" y="850" type="line" smooth="yes"/>
      <point x="305" y="850"/>
      <point x="302" y="848"/>
      <point x="301" y="845" type="curve" smooth="yes"/>
      <point x="301" y="843"/>
      <point x="302" y="841"/>
      <point x="306" y="840" type="curve" smooth="yes"/>
      <point x="425" y="818" type="line" smooth="yes"/>
      <point x="434" y="816"/>
      <point x="437" y="811"/>
      <point x="432" y="796" type="curve" smooth="yes"/>
      <point x="135.0" y="2.0" type="line" smooth="yes"/>
      <point x="101" y="-89"/>
      <point x="105.0" y="-157.0"/>
      <point x="92.0" y="-214.0" type="curve" smooth="yes"/>
      <point x="61.0" y="-349.0"/>
      <point x="-6.0" y="-448.0"/>
      <point x="-102.0" y="-448.0" type="curve" smooth="yes"/>
      <point x="-148.0" y="-448.0"/>
      <point x="-167.0" y="-418.0"/>
      <point x="-207.0" y="-418.0" type="curve" smooth="yes"/>
      <point x="-230.0" y="-418.0"/>
      <point x="-244.0" y="-432.0"/>
      <point x="-244.0" y="-451.0" type="curve" smooth="yes"/>
      <point x="-244.0" y="-472.0"/>
      <point x="-224" y="-488"/>
      <point x="-183.0" y="-488.0" type="curve" smooth="yes"/>
      <point x="-44.0" y="-488.0"/>
      <point x="44" y="-411"/>
      <point x="114.0" y="-221.0" type="curve" smooth="yes"/>
      <point x="536" y="934" type="line" smooth="yes"/>
      <point x="570" y="1029"/>
      <point x="581" y="1092"/>
    </contour>
    <contour>
      <point x="477" y="840" type="line"/>
      <point x="709" y="840" type="line" smooth="yes"/>
      <point x="713" y="840"/>
      <point x="716" y="842"/>
      <point x="717" y="846" type="curve" smooth="yes"/>
      <point x="717" y="849"/>
      <point x="717" y="850"/>
      <point x="714" y="850" type="curve" smooth="yes"/>
      <point x="482" y="850" type="line"/>
    </contour>
  </outline>
</glyph>
<glyph name="Uhorn" format="2">
  <advance width="1156"/>
  <unicode hex="01AF"/>
  <outline>
    <contour>
      <point x="1542" y="1586" type="curve" smooth="yes"/>
      <point x="1542" y="1617"/>
      <point x="1528" y="1635"/>
      <point x="1505" y="1635" type="curve" smooth="yes"/>
      <point x="1481" y="1635"/>
      <point x="1467" y="1616"/>
      <point x="1467" y="1584" type="curve" smooth="yes"/>
      <point x="1467" y="1540" type="line" smooth="yes"/>
      <point x="1467" y="1453"/>
      <point x="1425" y="1400"/>
      <point x="1338" y="1400" type="curve" smooth="yes"/>
      <point x="1336" y="1400"/>
      <point x="1334" y="1399"/>
      <point x="1334" y="1395" type="curve" smooth="yes"/>
      <point x="1334" y="1393"/>
      <point x="1335" y="1391"/>
      <point x="1337" y="1391" type="curve" smooth="yes"/>
      <point x="1470" y="1389"/>
      <point x="1542" y="1474"/>
    </contour>
    <component base="U"/>
  </outline>
</glyph>
<glyph name="Oogonek" format="2">
  <advance width="1432"/>
  <unicode hex="01EA"/>
  <outline>
    <contour>
      <point x="862" y="10" type="line"/>
      <point x="723.8381755668231" y="-46.70821152108008"/>
      <point x="633.0" y="-161.03249097472923"/>
      <point x="633" y="-242" type="curve" smooth="yes"/>
      <point x="633" y="-330"/>
      <point x="695" y="-384"/>
      <point x="796" y="-384" type="curve" smooth="yes"/>
      <point x="866" y="-384"/>
      <point x="914" y="-342"/>
      <point x="931" y="-305" type="curve" smooth="yes"/>
      <point x="933" y="-301"/>
      <point x="933" y="-297"/>
      <point x="930" y="-296" type="curve" smooth="yes"/>
      <point x="927" y="-295"/>
      <point x="925" y="-297"/>
      <point x="923" y="-301" type="curve" smooth="yes"/>
      <point x="904" y="-339"/>
      <point x="857" y="-369"/>
      <point x="808" y="-369" type="curve" smooth="yes"/>
      <point x="743" y="-369"/>
      <point x="695" y="-320"/>
      <point x="695" y="-238" type="curve" smooth="yes"/>
      <point x="695.0" y="-151.0909090909091"/>
      <point x="743.2273577299859" y="-57.24594930353603"/>
      <point x="867" y="1" type="curve"/>
    </contour>
    <component base="O"/>
  </outline>
</glyph>
<glyph name="oogonek" format="2">
  <advance width="759"/>
  <unicode hex="01EB"/>
  <outline>
    <contour>
      <point x="418" y="24.0" type="line"/>
      <point x="290" y="-40"/>
      <point x="206" y="-136"/>
      <point x="183" y="-222.0" type="curve" smooth="yes"/>
      <point x="156" y="-321"/>
      <point x="203" y="-384.0"/>
      <point x="288" y="-384.0" type="curve" smooth="yes"/>
      <point x="345" y="-384.0"/>
      <point x="389" y="-339"/>
      <point x="414" y="-305.0" type="curve" smooth="yes"/>
      <point x="417" y="-301.0"/>
      <point x="418" y="-297.0"/>
      <point x="416" y="-296.0" type="curve" smooth="yes"/>
      <point x="413" y="-295.0"/>
      <point x="410" y="-297.0"/>
      <point x="407" y="-301.0" type="curve" smooth="yes"/>
      <point x="381" y="-336"/>
      <point x="342" y="-369.0"/>
      <point x="304" y="-369.0" type="curve" smooth="yes"/>
      <point x="256" y="-369.0"/>
      <point x="219" y="-311"/>
      <point x="246" y="-218.0" type="curve" smooth="yes"/>
      <point x="278" y="-107"/>
      <point x="321" y="-39"/>
      <point x="421" y="21.0" type="curve"/>
    </contour>
    <component base="o"/>
  </outline>
</glyph>
<glyph name="dotaccentcmb" format="2">
  <advance width="188"/>
  <unicode hex="0307"/>
  <outline>
    <contour>
      <point x="94" y="1062" type="curve" smooth="yes"/>
      <point x="121" y="1062"/>
      <point x="138" y="1089"/>
      <point x="138" y="1120" type="curve" smooth="yes"/>
      <point x="138" y="1151"/>
      <point x="121" y="1177"/>
      <point x="94" y="1177" type="curve" smooth="yes"/>
      <point x="68" y="1177"/>
      <point x="50" y="1151"/>
      <point x="50" y="1120" type="curve" smooth="yes"/>
      <point x="50" y="1089"/>
      <point x="68" y="1062"/>
    </contour>
  </outline>
</glyph>
<glyph name="caroncmb" format="2">
  <advance width="498"/>
  <unicode hex="030C"/>
  <outline>
    <contour>
      <point x="250" y="1079" type="line"/>
      <point x="248" y="1079" type="line"/>
      <point x="435" y="1254" type="line" smooth="yes"/>
      <point x="440" y="1258"/>
      <point x="444" y="1261"/>
      <point x="447" y="1258" type="curve" smooth="yes"/>
      <point x="449" y="1256"/>
      <point x="448" y="1252"/>
      <point x="444" y="1246" type="curve" smooth="yes"/>
      <point x="286" y="1028" type="line" smooth="yes"/>
      <point x="274" y="1011"/>
      <point x="263.0" y="1003.0"/>
      <point x="249" y="1003" type="curve" smooth="yes"/>
      <point x="235.0" y="1003.0"/>
      <point x="224" y="1011"/>
      <point x="212" y="1028" type="curve" smooth="yes"/>
      <point x="54" y="1246" type="line" smooth="yes"/>
      <point x="50" y="1252"/>
      <point x="49" y="1256"/>
      <point x="51" y="1258" type="curve" smooth="yes"/>
      <point x="54" y="1261"/>
      <point x="58" y="1258"/>
      <point x="63" y="1254" type="curve" smooth="yes"/>
    </contour>
  </outline>
</glyph>
<glyph name="commercialminussign" format="2">
  <advance width="731"/>
  <unicode hex="2052"/>
  <outline>
    <contour>
      <point x="445" y="732" type="curve" smooth="yes"/>
      <point x="473" y="772"/>
      <point x="933" y="1383"/>
      <point x="940" y="1394" type="curve" smooth="yes"/>
      <point x="944" y="1398"/>
      <point x="946" y="1402"/>
      <point x="942" y="1404" type="curve" smooth="yes"/>
      <point x="939" y="1406"/>
      <point x="935" y="1404"/>
      <point x="932" y="1399" type="curve" smooth="yes"/>
      <point x="922" y="1387"/>
      <point x="464" y="769"/>
      <point x="440" y="735" type="curve" smooth="yes"/>
      <point x="405" y="688"/>
      <point x="-99" y="16"/>
      <point x="-111" y="1" type="curve" smooth="yes"/>
      <point x="-114" y="-3"/>
      <point x="-115" y="-7"/>
      <point x="-111" y="-9" type="curve" smooth="yes"/>
      <point x="-108" y="-11"/>
      <point x="-104" y="-8"/>
      <point x="-101" y="-4" type="curve" smooth="yes"/>
      <point x="-89" y="12"/>
      <point x="409" y="683"/>
    </contour>
    <component base="period" xScale="0.8910000000000001" yScale="0.8910000000000001" xOffset="306" yOffset="-4"/>
    <component base="period" xScale="0.8910000000000001" yScale="0.8910000000000001" xOffset="414" yOffset="1325"/>
  </outline>
</glyph>
<glyph name="four.superior" format="2">
  <advance width="581"/>
  <unicode hex="2074"/>
  <outline>
    <contour>
      <point x="553" y="1095" type="curve" smooth="yes"/>
      <point x="465" y="765" type="line" smooth="yes"/>
      <point x="463" y="757"/>
      <point x="458" y="752"/>
      <point x="450" y="751" type="curve" smooth="yes"/>
      <point x="379" y="742" type="line" smooth="yes"/>
      <point x="376" y="742"/>
      <point x="374" y="741"/>
      <point x="373" y="738" type="curve" smooth="yes"/>
      <point x="372" y="736"/>
      <point x="374" y="735"/>
      <point x="377" y="735" type="curve" smooth="yes"/>
      <point x="594" y="735" type="line" smooth="yes"/>
      <point x="597" y="735"/>
      <point x="598" y="736"/>
      <point x="599" y="739" type="curve" smooth="yes"/>
      <point x="600" y="741"/>
      <point x="598" y="742"/>
      <point x="596" y="742" type="curve" smooth="yes"/>
      <point x="530" y="751" type="line" smooth="yes"/>
      <point x="522" y="753"/>
      <point x="519" y="757"/>
      <point x="521" y="766" type="curve" smooth="yes"/>
      <point x="627" y="1160" type="line" smooth="yes"/>
      <point x="628" y="1163"/>
      <point x="628" y="1165"/>
      <point x="626" y="1165" type="curve" smooth="yes"/>
      <point x="624" y="1165"/>
      <point x="625" y="1165"/>
      <point x="620" y="1161" type="curve" smooth="yes"/>
      <point x="562" y="1113" type="line" smooth="yes"/>
      <point x="557" y="1109"/>
      <point x="556" y="1103"/>
    </contour>
    <contour>
      <point x="508" y="1162" type="curve" smooth="yes"/>
      <point x="189" y="903" type="line" smooth="yes"/>
      <point x="186" y="901"/>
      <point x="186" y="900"/>
      <point x="186" y="898" type="curve" smooth="yes"/>
      <point x="185" y="896"/>
      <point x="186" y="894"/>
      <point x="188" y="894" type="curve" smooth="yes"/>
      <point x="686" y="894" type="line" smooth="yes"/>
      <point x="689" y="894"/>
      <point x="691" y="896"/>
      <point x="692" y="899" type="curve" smooth="yes"/>
      <point x="693" y="903"/>
      <point x="691" y="905"/>
      <point x="689" y="905" type="curve" smooth="yes"/>
      <point x="198" y="905" type="line"/>
      <point x="196" y="897" type="line"/>
      <point x="514" y="1153" type="line" smooth="yes"/>
      <point x="586" y="1211"/>
      <point x="635" y="1259"/>
      <point x="650" y="1316" type="curve" smooth="yes"/>
      <point x="666" y="1376"/>
      <point x="652" y="1409.0"/>
      <point x="627" y="1409" type="curve" smooth="yes"/>
      <point x="606.2452830188679" y="1409.0"/>
      <point x="589.9139560792817" y="1393.6927002831487"/>
      <point x="583" y="1369" type="curve" smooth="yes"/>
      <point x="571.4192763797894" y="1326.5373467258942"/>
      <point x="593" y="1294"/>
      <point x="582" y="1251" type="curve" smooth="yes"/>
      <point x="574" y="1219"/>
      <point x="549" y="1195"/>
    </contour>
  </outline>
</glyph>
<glyph name="peso" format="2">
  <advance width="1158"/>
  <unicode hex="20B1"/>
  <outline>
    <contour>
      <point x="1239" y="876" type="curve" smooth="yes"/>
      <point x="1321" y="1182"/>
      <point x="1130" y="1400.0"/>
      <point x="809" y="1400" type="curve" smooth="yes"/>
      <point x="470" y="1400" type="line" smooth="yes"/>
      <point x="466" y="1400"/>
      <point x="463" y="1399"/>
      <point x="462" y="1396" type="curve" smooth="yes"/>
      <point x="462" y="1394"/>
      <point x="463" y="1392"/>
      <point x="466" y="1392" type="curve" smooth="yes"/>
      <point x="589" y="1375" type="line" smooth="yes"/>
      <point x="602" y="1373"/>
      <point x="606" y="1365"/>
      <point x="603" y="1353" type="curve" smooth="yes"/>
      <point x="253" y="47" type="line" smooth="yes"/>
      <point x="249" y="35"/>
      <point x="241" y="27"/>
      <point x="225" y="25" type="curve" smooth="yes"/>
      <point x="96" y="8" type="line" smooth="yes"/>
      <point x="92" y="7"/>
      <point x="90" y="6"/>
      <point x="89" y="4" type="curve" smooth="yes"/>
      <point x="88" y="1"/>
      <point x="91" y="0"/>
      <point x="95" y="0" type="curve" smooth="yes"/>
      <point x="444" y="0" type="line" smooth="yes"/>
      <point x="448" y="0"/>
      <point x="450" y="1"/>
      <point x="451" y="4" type="curve" smooth="yes"/>
      <point x="452" y="6"/>
      <point x="450" y="7"/>
      <point x="446" y="8" type="curve" smooth="yes"/>
      <point x="326" y="25" type="line" smooth="yes"/>
      <point x="311" y="27"/>
      <point x="307" y="35"/>
      <point x="310" y="46" type="curve" smooth="yes"/>
      <point x="670" y="1390" type="line"/>
      <point x="806" y="1390" type="line" smooth="yes"/>
      <point x="1099" y="1390.0"/>
      <point x="1262" y="1186"/>
      <point x="1180" y="880" type="curve" smooth="yes"/>
      <point x="1115" y="636"/>
      <point x="913" y="466.0"/>
      <point x="692" y="466" type="curve" smooth="yes"/>
      <point x="610" y="466"/>
      <point x="499" y="486"/>
      <point x="429" y="548" type="curve"/>
      <point x="424" y="544" type="line"/>
      <point x="500" y="477"/>
      <point x="604" y="452"/>
      <point x="697" y="452" type="curve" smooth="yes"/>
      <point x="944" y="452.0"/>
      <point x="1170" y="619"/>
    </contour>
    <contour>
      <point x="374" y="1041" type="curve" smooth="yes"/>
      <point x="373" y="1038"/>
      <point x="375" y="1036"/>
      <point x="378" y="1036" type="curve" smooth="yes"/>
      <point x="550" y="1036" type="line"/>
      <point x="1231" y="1036" type="line"/>
      <point x="1419" y="1036" type="line" smooth="yes"/>
      <point x="1422" y="1036"/>
      <point x="1424" y="1038"/>
      <point x="1425" y="1041" type="curve" smooth="yes"/>
      <point x="1426" y="1044"/>
      <point x="1424" y="1046"/>
      <point x="1421" y="1046" type="curve" smooth="yes"/>
      <point x="1232" y="1046" type="line"/>
      <point x="552" y="1046" type="line"/>
      <point x="380" y="1046" type="line" smooth="yes"/>
      <point x="377" y="1046"/>
      <point x="375" y="1044"/>
    </contour>
    <contour>
      <point x="305" y="782" type="curve" smooth="yes"/>
      <point x="304" y="779"/>
      <point x="305" y="777"/>
      <point x="308" y="777" type="curve" smooth="yes"/>
      <point x="480" y="777" type="line"/>
      <point x="1161" y="777" type="line"/>
      <point x="1349" y="777" type="line" smooth="yes"/>
      <point x="1352" y="777"/>
      <point x="1355" y="779"/>
      <point x="1356" y="782" type="curve" smooth="yes"/>
      <point x="1356" y="785"/>
      <point x="1355" y="787"/>
      <point x="1352" y="787" type="curve" smooth="yes"/>
      <point x="1163" y="787" type="line"/>
      <point x="483" y="787" type="line"/>
      <point x="311" y="787" type="line" smooth="yes"/>
      <point x="308" y="787"/>
      <point x="305" y="785"/>
    </contour>
  </outline>
</glyph>
<glyph name="minus" format="2">
  <advance width="910"/>
  <unicode hex="2212"/>
  <outline>
    <contour>
      <point x="177" y="682" type="curve" smooth="yes"/>
      <point x="177" y="679"/>
      <point x="179" y="677"/>
      <point x="183" y="677" type="curve" smooth="yes"/>
      <point x="880" y="677" type="line" smooth="yes"/>
      <point x="884" y="677"/>
      <point x="887" y="679"/>
      <point x="887" y="682" type="curve" smooth="yes"/>
      <point x="888" y="685"/>
      <point x="886" y="687"/>
      <point x="883" y="687" type="curve" smooth="yes"/>
      <point x="186" y="687" type="line" smooth="yes"/>
      <point x="182" y="687"/>
      <point x="178" y="685"/>
    </contour>
  </outline>
</glyph>
<glyph name="acute.cap" format="2">
  <advance width="360"/>
  <anchor x="71" y="912" name="center"/>
  <outline>
    <contour>
      <point x="197" y="1163" type="curve" smooth="yes"/>
      <point x="55" y="1013" type="line" smooth="yes"/>
      <point x="52" y="1010"/>
      <point x="50" y="1006"/>
      <point x="51" y="1004" type="curve" smooth="yes"/>
      <point x="54" y="1000"/>
      <point x="58" y="1001"/>
      <point x="62" y="1004" type="curve" smooth="yes"/>
      <point x="245" y="1115" type="line" smooth="yes"/>
      <point x="279" y="1136"/>
      <point x="304" y="1153"/>
      <point x="309" y="1178" type="curve" smooth="yes"/>
      <point x="312" y="1195"/>
      <point x="303" y="1213"/>
      <point x="281" y="1217" type="curve" smooth="yes"/>
      <point x="255" y="1222"/>
      <point x="232" y="1199"/>
    </contour>
  </outline>
</glyph>
<glyph name="breveacute" format="2">
  <advance width="454"/>
  <anchor x="220" y="902" name="center"/>
  <outline>
    <contour>
      <point x="302" y="1355" type="curve" smooth="yes"/>
      <point x="188" y="1183" type="line" smooth="yes"/>
      <point x="185" y="1179"/>
      <point x="184" y="1175"/>
      <point x="186" y="1173" type="curve" smooth="yes"/>
      <point x="189" y="1170"/>
      <point x="193" y="1172"/>
      <point x="196" y="1175" type="curve" smooth="yes"/>
      <point x="357" y="1316" type="line" smooth="yes"/>
      <point x="387" y="1343"/>
      <point x="409" y="1364"/>
      <point x="409" y="1389" type="curve" smooth="yes"/>
      <point x="409" y="1407"/>
      <point x="397" y="1423"/>
      <point x="375" y="1423" type="curve" smooth="yes"/>
      <point x="349" y="1423"/>
      <point x="330" y="1397"/>
    </contour>
    <contour>
      <point x="227" y="1067" type="curve" smooth="yes"/>
      <point x="145" y="1067"/>
      <point x="85" y="1107"/>
      <point x="67" y="1219" type="curve" smooth="yes"/>
      <point x="65" y="1230"/>
      <point x="61" y="1232"/>
      <point x="57" y="1232" type="curve" smooth="yes"/>
      <point x="53" y="1232"/>
      <point x="49" y="1228"/>
      <point x="50" y="1217" type="curve" smooth="yes"/>
      <point x="61" y="1094"/>
      <point x="113" y="1008"/>
      <point x="227" y="1008" type="curve" smooth="yes"/>
      <point x="341" y="1008"/>
      <point x="393" y="1094"/>
      <point x="404" y="1217" type="curve" smooth="yes"/>
      <point x="405" y="1228"/>
      <point x="401" y="1232"/>
      <point x="397" y="1232" type="curve" smooth="yes"/>
      <point x="393" y="1232"/>
      <point x="389" y="1230"/>
      <point x="387" y="1219" type="curve" smooth="yes"/>
      <point x="369" y="1107"/>
      <point x="309" y="1067"/>
    </contour>
  </outline>
</glyph>
<glyph name="brevehook" format="2">
  <advance width="454"/>
  <outline>
    <contour>
      <point x="227" y="1067" type="curve" smooth="yes"/>
      <point x="145.0" y="1067.0"/>
      <point x="85.0" y="1107.0"/>
      <point x="67" y="1219" type="curve" smooth="yes"/>
      <point x="65" y="1230"/>
      <point x="61" y="1232"/>
      <point x="57" y="1232" type="curve" smooth="yes"/>
      <point x="53" y="1232"/>
      <point x="49" y="1228"/>
      <point x="50" y="1217" type="curve" smooth="yes"/>
      <point x="61" y="1094"/>
      <point x="113" y="1008"/>
      <point x="227" y="1008" type="curve" smooth="yes"/>
      <point x="341" y="1008"/>
      <point x="393" y="1094"/>
      <point x="404" y="1217" type="curve" smooth="yes"/>
      <point x="405" y="1228"/>
      <point x="401" y="1232"/>
      <point x="397" y="1232" type="curve" smooth="yes"/>
      <point x="393" y="1232"/>
      <point x="389" y="1230"/>
      <point x="387" y="1219" type="curve" smooth="yes"/>
      <point x="369" y="1107"/>
      <point x="309" y="1067"/>
    </contour>
    <contour>
      <point x="192" y="1187" type="curve" smooth="yes"/>
      <point x="192" y="1190"/>
      <point x="194" y="1191"/>
      <point x="199" y="1192" type="curve" smooth="yes"/>
      <point x="284" y="1208"/>
      <point x="317" y="1266"/>
      <point x="317" y="1336" type="curve" smooth="yes"/>
      <point x="317.0" y="1416.0"/>
      <point x="286.3103448275862" y="1456.0"/>
      <point x="228" y="1456" type="curve" smooth="yes"/>
      <point x="169.3953488372093" y="1456.0"/>
      <point x="144.0" y="1415.0"/>
      <point x="144" y="1360" type="curve" smooth="yes"/>
      <point x="144" y="1337" type="line" smooth="yes"/>
      <point x="144" y="1310"/>
      <point x="129" y="1294"/>
      <point x="108" y="1294" type="curve" smooth="yes"/>
      <point x="88" y="1294"/>
      <point x="76" y="1314"/>
      <point x="76" y="1337" type="curve" smooth="yes"/>
      <point x="76.0" y="1408.0"/>
      <point x="145.0967741935484" y="1468.0"/>
      <point x="229" y="1468" type="curve" smooth="yes"/>
      <point x="312.15492957746477" y="1468.0"/>
      <point x="373.0" y="1419.0"/>
      <point x="373" y="1336" type="curve" smooth="yes"/>
      <point x="373" y="1253"/>
      <point x="313" y="1198"/>
      <point x="199" y="1183" type="curve" smooth="yes"/>
      <point x="194" y="1182"/>
      <point x="192" y="1184"/>
    </contour>
  </outline>
</glyph>
<glyph name="caron.cap" format="2">
  <advance width="498"/>
  <outline>
    <contour>
      <point x="250" y="1079" type="line"/>
      <point x="248" y="1079" type="line"/>
      <point x="435" y="1214" type="line" smooth="yes"/>
      <point x="440" y="1218"/>
      <point x="444" y="1221"/>
      <point x="447" y="1218" type="curve" smooth="yes"/>
      <point x="449" y="1216"/>
      <point x="449" y="1212"/>
      <point x="444" y="1206" type="curve" smooth="yes"/>
      <point x="286" y="1028" type="line" smooth="yes"/>
      <point x="272" y="1012"/>
      <point x="263" y="1003"/>
      <point x="249" y="1003" type="curve" smooth="yes"/>
      <point x="235" y="1003"/>
      <point x="226" y="1012"/>
      <point x="212" y="1028" type="curve" smooth="yes"/>
      <point x="54" y="1206" type="line" smooth="yes"/>
      <point x="49" y="1212"/>
      <point x="49" y="1216"/>
      <point x="51" y="1218" type="curve" smooth="yes"/>
      <point x="54" y="1221"/>
      <point x="58" y="1218"/>
      <point x="63" y="1214" type="curve" smooth="yes"/>
    </contour>
  </outline>
</glyph>
<glyph name="circumflex.cap" format="2">
  <advance width="498"/>
  <outline>
    <contour>
      <point x="250" y="1143" type="line"/>
      <point x="63" y="1008" type="line" smooth="yes"/>
      <point x="58" y="1004"/>
      <point x="54" y="1001"/>
      <point x="51" y="1004" type="curve" smooth="yes"/>
      <point x="49" y="1006"/>
      <point x="49" y="1010"/>
      <point x="54" y="1016" type="curve" smooth="yes"/>
      <point x="212" y="1194" type="line" smooth="yes"/>
      <point x="226" y="1210"/>
      <point x="235" y="1219"/>
      <point x="249" y="1219" type="curve" smooth="yes"/>
      <point x="263" y="1219"/>
      <point x="272" y="1210"/>
      <point x="286" y="1194" type="curve" smooth="yes"/>
      <point x="444" y="1016" type="line" smooth="yes"/>
      <point x="449" y="1010"/>
      <point x="449" y="1006"/>
      <point x="447" y="1004" type="curve" smooth="yes"/>
      <point x="444" y="1001"/>
      <point x="440" y="1004"/>
      <point x="435" y="1008" type="curve" smooth="yes"/>
      <point x="248" y="1143" type="line"/>
    </contour>
  </outline>
</glyph>
<glyph name="circumflextilde.cap" format="2">
  <advance width="498"/>
  <outline>
    <contour>
      <point x="250" y="1143" type="line"/>
      <point x="63" y="1008" type="line" smooth="yes"/>
      <point x="58" y="1004"/>
      <point x="54" y="1001"/>
      <point x="51" y="1004" type="curve" smooth="yes"/>
      <point x="49" y="1006"/>
      <point x="49" y="1010"/>
      <point x="54" y="1016" type="curve" smooth="yes"/>
      <point x="212" y="1194" type="line" smooth="yes"/>
      <point x="226" y="1210"/>
      <point x="235" y="1219"/>
      <point x="249" y="1219" type="curve" smooth="yes"/>
      <point x="263" y="1219"/>
      <point x="272" y="1210"/>
      <point x="286" y="1194" type="curve" smooth="yes"/>
      <point x="444" y="1016" type="line" smooth="yes"/>
      <point x="449" y="1010"/>
      <point x="449" y="1006"/>
      <point x="447" y="1004" type="curve" smooth="yes"/>
      <point x="444" y="1001"/>
      <point x="440" y="1004"/>
      <point x="435" y="1008" type="curve" smooth="yes"/>
      <point x="248" y="1143" type="line"/>
    </contour>
    <contour>
      <point x="342" y="1235" type="curve" smooth="yes"/>
      <point x="406" y="1235"/>
      <point x="444" y="1280"/>
      <point x="444" y="1374" type="curve" smooth="yes"/>
      <point x="444" y="1386"/>
      <point x="441" y="1388"/>
      <point x="436" y="1388" type="curve" smooth="yes"/>
      <point x="431" y="1388"/>
      <point x="429" y="1383"/>
      <point x="429" y="1374" type="curve" smooth="yes"/>
      <point x="429" y="1322"/>
      <point x="410" y="1290"/>
      <point x="370" y="1290" type="curve" smooth="yes"/>
      <point x="290" y="1290"/>
      <point x="239" y="1374"/>
      <point x="162" y="1374" type="curve" smooth="yes"/>
      <point x="98" y="1374"/>
      <point x="60" y="1329"/>
      <point x="60" y="1235" type="curve" smooth="yes"/>
      <point x="60" y="1223"/>
      <point x="63" y="1221"/>
      <point x="68" y="1221" type="curve" smooth="yes"/>
      <point x="73" y="1221"/>
      <point x="75" y="1226"/>
      <point x="75" y="1235" type="curve" smooth="yes"/>
      <point x="75" y="1287"/>
      <point x="94" y="1319"/>
      <point x="134" y="1319" type="curve" smooth="yes"/>
      <point x="214" y="1319"/>
      <point x="264" y="1235"/>
    </contour>
  </outline>
</glyph>
<glyph name="grave.cap" format="2">
  <advance width="360"/>
  <anchor x="300.0" y="905.0" name="center"/>
  <outline>
    <contour>
      <point x="163" y="1163" type="line" smooth="yes"/>
      <point x="128" y="1199"/>
      <point x="105" y="1222"/>
      <point x="79" y="1217" type="curve" smooth="yes"/>
      <point x="57" y="1213"/>
      <point x="48" y="1195"/>
      <point x="51" y="1178" type="curve" smooth="yes"/>
      <point x="56" y="1153"/>
      <point x="81" y="1136"/>
      <point x="115" y="1115" type="curve" smooth="yes"/>
      <point x="298" y="1004" type="line" smooth="yes"/>
      <point x="302" y="1001"/>
      <point x="306" y="1000"/>
      <point x="309" y="1004" type="curve" smooth="yes"/>
      <point x="310" y="1006"/>
      <point x="308" y="1010"/>
      <point x="305" y="1013" type="curve" smooth="yes"/>
    </contour>
  </outline>
</glyph>
<glyph name="hook.cap" format="2">
  <advance width="397"/>
  <outline>
    <contour>
      <point x="166" y="1007" type="curve" smooth="yes"/>
      <point x="166" y="1010"/>
      <point x="168" y="1011"/>
      <point x="173" y="1012" type="curve" smooth="yes"/>
      <point x="257.6232331966459" y="1027.9290791899568"/>
      <point x="291.0" y="1075.7222222222222"/>
      <point x="291" y="1136" type="curve" smooth="yes"/>
      <point x="291.0" y="1203"/>
      <point x="260.0" y="1236.0"/>
      <point x="202" y="1236" type="curve" smooth="yes"/>
      <point x="143.0" y="1236.0"/>
      <point x="118" y="1204"/>
      <point x="118" y="1160" type="curve" smooth="yes"/>
      <point x="118" y="1137" type="line" smooth="yes"/>
      <point x="118" y="1110"/>
      <point x="103" y="1094"/>
      <point x="82" y="1094" type="curve" smooth="yes"/>
      <point x="62" y="1094"/>
      <point x="50" y="1114"/>
      <point x="50" y="1137" type="curve" smooth="yes"/>
      <point x="50.0" y="1197"/>
      <point x="119" y="1248.0"/>
      <point x="203" y="1248" type="curve" smooth="yes"/>
      <point x="286.0" y="1248.0"/>
      <point x="347.0" y="1206"/>
      <point x="347" y="1136" type="curve" smooth="yes"/>
      <point x="347.0" y="1063.8496732026144"/>
      <point x="286.7627214721025" y="1017.9687791410661"/>
      <point x="173" y="1003" type="curve" smooth="yes"/>
      <point x="168" y="1002"/>
      <point x="166" y="1004"/>
    </contour>
  </outline>
</glyph>
<glyph name="hookcmb" format="2">
  <advance width="397"/>
  <outline>
    <contour>
      <point x="166" y="1007" type="curve" smooth="yes"/>
      <point x="166" y="1010"/>
      <point x="168" y="1011"/>
      <point x="173" y="1012" type="curve" smooth="yes"/>
      <point x="258" y="1028"/>
      <point x="291" y="1086"/>
      <point x="291" y="1156" type="curve" smooth="yes"/>
      <point x="291.0" y="1236.0"/>
      <point x="260.3103448275862" y="1276.0"/>
      <point x="202" y="1276" type="curve" smooth="yes"/>
      <point x="143.3953488372093" y="1276.0"/>
      <point x="118" y="1235.0"/>
      <point x="118" y="1180" type="curve" smooth="yes"/>
      <point x="118" y="1157" type="line" smooth="yes"/>
      <point x="118" y="1130"/>
      <point x="103" y="1114"/>
      <point x="82" y="1114" type="curve" smooth="yes"/>
      <point x="62" y="1114"/>
      <point x="50" y="1134"/>
      <point x="50" y="1157" type="curve" smooth="yes"/>
      <point x="50.0" y="1228.0"/>
      <point x="119.0967741935484" y="1288.0"/>
      <point x="203" y="1288" type="curve" smooth="yes"/>
      <point x="286.15492957746477" y="1288.0"/>
      <point x="347.0" y="1239.0"/>
      <point x="347" y="1156" type="curve" smooth="yes"/>
      <point x="347" y="1073"/>
      <point x="287" y="1018"/>
      <point x="173" y="1003" type="curve" smooth="yes"/>
      <point x="168" y="1002"/>
      <point x="166" y="1004"/>
    </contour>
  </outline>
</glyph>
<glyph name="macron.cap" format="2">
  <advance width="494"/>
  <anchor x="262" y="995" name="center"/>
  <outline>
    <contour>
      <point x="53.739920042647725" y="1065.0" type="curve" smooth="yes"/>
      <point x="51.24664001421593" y="1055.0"/>
      <point x="56.0" y="1050.0"/>
      <point x="66.0" y="1050.0" type="curve" smooth="yes"/>
      <point x="428.0" y="1050.0" type="line" smooth="yes"/>
      <point x="438.0" y="1050.0"/>
      <point x="445.2466400142159" y="1055.0"/>
      <point x="447.7399200426478" y="1065.0" type="curve" smooth="yes"/>
      <point x="450.2332000710795" y="1075.0"/>
      <point x="445.47984008529545" y="1080.0"/>
      <point x="435.47984008529545" y="1080.0" type="curve" smooth="yes"/>
      <point x="73.47984008529545" y="1080.0" type="line" smooth="yes"/>
      <point x="63.47984008529545" y="1080.0"/>
      <point x="56.23320007107952" y="1075.0"/>
    </contour>
  </outline>
</glyph>
<glyph name="w.alt" format="2">
  <advance width="1099"/>
  <anchor x="684" y="1013" name="center"/>
  <outline>
    <contour>
      <point x="151" y="61" type="curve" smooth="yes"/>
      <point x="149" y="1"/>
      <point x="167" y="-21"/>
      <point x="214" y="-21" type="curve" smooth="yes"/>
      <point x="327" y="-21"/>
      <point x="500" y="176"/>
      <point x="590" y="425" type="curve"/>
      <point x="582" y="428" type="line"/>
      <point x="550" y="245"/>
      <point x="524" y="99"/>
      <point x="523" y="62" type="curve" smooth="yes"/>
      <point x="521" y="2"/>
      <point x="539" y="-20"/>
      <point x="586" y="-20" type="curve" smooth="yes"/>
      <point x="727" y="-20"/>
      <point x="1069" y="414"/>
      <point x="1083" y="800" type="curve" smooth="yes"/>
      <point x="1084" y="843"/>
      <point x="1069" y="858"/>
      <point x="1045" y="858" type="curve" smooth="yes"/>
      <point x="1027" y="858"/>
      <point x="1012" y="844"/>
      <point x="1011" y="816" type="curve" smooth="yes"/>
      <point x="1011" y="796"/>
      <point x="1020" y="774"/>
      <point x="1034" y="760" type="curve" smooth="yes"/>
      <point x="1050" y="743"/>
      <point x="1061" y="740"/>
      <point x="1060" y="714" type="curve" smooth="yes"/>
      <point x="1051" y="461"/>
      <point x="752" y="10"/>
      <point x="623" y="10" type="curve" smooth="yes"/>
      <point x="589" y="10"/>
      <point x="572" y="32"/>
      <point x="574" y="82" type="curve" smooth="yes"/>
      <point x="575" y="162"/>
      <point x="683" y="707"/>
      <point x="683" y="799" type="curve" smooth="yes"/>
      <point x="683" y="842"/>
      <point x="669" y="857"/>
      <point x="645" y="857" type="curve" smooth="yes"/>
      <point x="627" y="857"/>
      <point x="612" y="843"/>
      <point x="611" y="815" type="curve" smooth="yes"/>
      <point x="611" y="794"/>
      <point x="619" y="781"/>
      <point x="622" y="757" type="curve" smooth="yes"/>
      <point x="626" y="722"/>
      <point x="613" y="592"/>
      <point x="596" y="502" type="curve" smooth="yes"/>
      <point x="542" y="210"/>
      <point x="322" y="9"/>
      <point x="251" y="9" type="curve" smooth="yes"/>
      <point x="217" y="9"/>
      <point x="200" y="31"/>
      <point x="202" y="81" type="curve" smooth="yes"/>
      <point x="204" y="145"/>
      <point x="278" y="605"/>
      <point x="285" y="702" type="curve" smooth="yes"/>
      <point x="294" y="813"/>
      <point x="268" y="859"/>
      <point x="227" y="859" type="curve" smooth="yes"/>
      <point x="174" y="859"/>
      <point x="115" y="795"/>
      <point x="80" y="713" type="curve" smooth="yes"/>
      <point x="80" y="709"/>
      <point x="80" y="707"/>
      <point x="84" y="707" type="curve" smooth="yes"/>
      <point x="86" y="705"/>
      <point x="89" y="709"/>
      <point x="90" y="713" type="curve" smooth="yes"/>
      <point x="110" y="770"/>
      <point x="149" y="806"/>
      <point x="191" y="806" type="curve" smooth="yes"/>
      <point x="231" y="806"/>
      <point x="250" y="762"/>
      <point x="244" y="695" type="curve" smooth="yes"/>
      <point x="236" y="599"/>
      <point x="153" y="127"/>
    </contour>
  </outline>
</glyph>
